<?xml version="1.0" encoding="UTF-8"?>
<svg xmlns="http://www.w3.org/2000/svg" version="1.1" viewBox="0 0 855.24 1024">
  <defs>
    <style>
      .cls-1 {
        fill: #aaa;
      }

      .cls-2 {
        fill: #6b6b6b;
      }

      .cls-3 {
        fill: #fbf9f9;
      }

      .cls-4 {
        fill: #6d6d6d;
      }

      .cls-5 {
        fill: #aaabab;
      }
    </style>
  </defs>
  <!-- Generator: Adobe Illustrator 28.7.2, SVG Export Plug-In . SVG Version: 1.2.0 Build 154)  -->
  <g>
    <g id="Layer_1">
      <path class="cls-3" d="M458.41,771.5c0,70.91.05,141.82-.08,212.74-.01,6.66.24,13.8-1.96,19.87-4.87,13.44-15.55,20.41-29.83,19.86-14.24-.55-24.54-7.78-27.78-22.15-1.72-7.64-1.99-15.73-2-23.61-.11-141.21-.17-282.43.08-423.64.02-11.67-1.71-20.13-12.76-27.57-20.3-13.66-27.34-35.31-27.46-59.04-.25-50.13-.31-100.26.04-150.38.17-23.85,8.47-44.72,28.64-58.51,9.49-6.49,11.65-13.83,11.58-24.45-.4-62.35-.2-124.71-.19-187.06,0-4.89-.22-9.8.12-14.67C398.2,13.28,410.2.37,427.15,0c17.43-.37,30.79,13.45,31.07,33.73.48,34.84.17,69.69.19,104.53,0,23.23.55,46.48-.15,69.68-.73,23.88-2.18,46.08,22.77,62.04,12.96,8.29,17.31,26.21,17.35,42.78.15,53.79.29,107.59,0,161.38-.12,22.2-9.59,40.61-27.69,53.13-9.95,6.88-12.57,14.59-12.5,25.98.43,72.74.22,145.49.22,218.24Z"/>
      <path class="cls-3" d="M641.12,340.14c0,63.58.17,127.15-.17,190.73-.05,10.36,1.42,17.95,10.96,24.75,18.23,13.01,24.79,32.94,25.09,54.58.5,36.06.47,72.14.02,108.2-.28,22.57-8.63,41.97-27.55,55.18-7.14,4.99-8.52,10.7-8.47,18.52.26,36.68.25,73.36.06,110.03-.12,22.69-12.69,37.79-30.95,37.93-19.02.15-30.73-13.78-30.87-37.48-.2-36.68-.18-73.36.05-110.03.05-7.75-1.04-13.63-8.36-18.55-19.34-13.02-26.97-32.75-27.25-55.21-.47-37.28-.37-74.58.02-111.86.22-20.56,7.6-38.73,24.28-51.16,9.02-6.72,11.46-13.88,11.43-24.56-.34-123.48-.22-246.97-.21-370.45,0-6.11-.35-12.27.27-18.33,1.86-18.32,14.56-30.81,30.49-30.49,17.52.36,30.58,12.88,30.89,31.99.64,39.72.25,79.47.27,119.2.01,25.67,0,51.35,0,77.02Z"/>
      <path class="cls-3" d="M276.62,343.85c0,62.4.17,124.8-.17,187.2-.06,10.48,1.94,17.99,11.16,24.86,16.01,11.92,23.78,29.26,23.9,49.36.24,39.15.24,78.3.02,117.45-.12,20.17-8.24,37.21-24.41,49.01-8.68,6.33-10.77,13.37-10.66,23.23.4,36.09.18,72.19.13,108.28-.02,13.49-3.15,25.48-16.14,32.66-20.76,11.47-44.4-2.12-45.05-27.31-.96-37.29-.62-74.63-.24-111.94.11-10.45-1.75-17.88-11.23-24.71-16.78-12.07-24.64-30-24.73-50.82-.16-38.54-.2-77.08,0-115.62.11-20.1,7.71-37.49,23.78-49.4,9.61-7.12,12.28-14.75,12.24-26.15-.37-124.8-.26-249.6-.16-374.41,0-7.9-.5-16.32,1.93-23.6,4.55-13.61,15.58-20.13,29.82-19.93,13.98.2,23.01,8.48,26.9,21.09,2.47,7.99,2.76,16.88,2.79,25.37.22,61.79.12,123.58.12,185.37Z"/>
      <path class="cls-3" d="M32.47,676.89c-.02-40.94-.17-81.88.09-122.82.06-8.94-1.08-15.87-9.14-22.1C6.94,519.23.14,501.07.08,480.45c-.11-32.39-.1-64.77,0-97.16.06-20.05,7.01-37.35,23.03-49.67,7.84-6.03,9.78-12.83,9.51-22.01-.52-17.7-.38-35.44-.07-53.16.37-20.48,12.25-33.56,30.48-34.24,16.07-.6,29.79,12.72,30.94,32.25,1.12,18.88.54,37.87.33,56.81-.08,7.65.78,13.9,7.77,19.08,18.2,13.5,24.27,33.02,24.41,54.74.2,30.55.1,61.11.03,91.66-.05,20.5-5.94,39.03-22.39,51.99-8.46,6.67-9.88,14.11-9.85,23.74.21,81.88.05,163.76.19,245.64.02,11.34-.98,22.27-9.79,30.35-9.16,8.39-19.89,11.86-32.06,6.63-13.96-6-20.1-17.04-20.1-31.89,0-42.77,0-85.55-.03-128.32Z"/>
      <path class="cls-3" d="M761.8,678.27c0-40.98-.16-81.96.12-122.94.06-9.6-1.28-17.05-9.88-23.73-15.88-12.34-22.57-29.97-22.61-50.01-.06-32.42.1-64.83-.08-97.25-.11-20.85,6.92-38.51,23.42-51.42,7.09-5.55,9.44-11.68,9.19-20.37-.51-18.33-.51-36.7.02-55.04.56-19.5,13.23-33.36,29.49-33.35,17.14,0,30.15,12.48,31.81,31.61.9,10.32.54,20.78.33,31.17-.44,21.17-2.25,41.66,18.43,57.19,10.62,7.97,13.02,23.17,13.06,37.05.12,34.25.19,68.5.04,102.75-.08,18.79-7.18,35.06-21.77,46.63-8.47,6.72-9.85,14.21-9.83,23.82.2,78.9.12,157.8.09,236.71,0,6.11.28,12.29-.52,18.32-2.43,18.38-17.02,31.28-33.28,29.98-16.62-1.33-27.71-13.59-27.87-32.67-.37-42.81-.12-85.63-.12-128.44h-.06Z"/>
      <path class="cls-1" d="M559.75,339.43c0,59.3-.22,118.61.19,177.91.08,11.67-2.42,20.51-11.25,29.17-16.73,16.41-25.15,37.1-25,61.05.24,36.68.2,73.37.01,110.05-.13,25.76,7.9,48.11,27.12,65.63,6.38,5.81,9.32,11.94,9.2,20.69-.41,31.79-.07,63.58-.23,95.37-.03,7.01,1.71,17.1-8.92,16.58-10.07-.5-8.04-10.51-8.14-17.53-.22-16.5-.22-33.02-.04-49.52.3-27.2,2.9-53.78-20.51-75.99-12.6-11.95-14.52-32.01-14.68-50.01-.37-39.73-.47-79.47-.09-119.2.23-24.8,9.18-46.83,25.92-64.94,7.32-7.92,9.52-15.95,9.49-26.27-.26-113.72-.16-227.43-.16-341.15,0-4.28-.56-8.65.12-12.82,1.31-8.11-4.78-22,8.77-21.82,10.94.14,8.05,13.13,8.08,21.23.19,53.19.1,106.38.1,159.57,0,7.34,0,14.67,0,22.01Z"/>
      <path class="cls-4" d="M296.51,338.35c0-59.34,0-118.68,0-178.02,0-4.28-.05-8.57.1-12.84.17-5.05.79-10.56,7.09-10.98,6.54-.43,7.55,5.09,7.89,10.12.34,4.87.2,9.78.2,14.68,0,115.01.16,230.02-.21,345.02-.04,12.87,2.32,23.48,11.17,33.36,18.34,20.49,25.86,45.02,25.39,72.56-.59,34.25-.7,68.52.03,102.77.62,29.04-8.49,54.23-27.6,75.52-6.77,7.54-9.04,15.12-8.91,24.78.37,28.75.2,57.5.05,86.25-.03,5.97.53,13.74-8.2,13.51-7.48-.2-6.94-7.31-6.96-12.72-.09-34.26.16-68.52-.19-102.77-.09-8.5,4.43-13.71,10.03-18.54,15.74-13.59,24.56-31.63,25.22-51.41,1.53-46.35,4.23-92.84-1.69-139.13-2.09-16.35-9.22-30.87-21.16-41.72-10.2-9.27-12.57-19.44-12.46-32.41.5-59.33.22-118.68.22-178.01Z"/>
      <path class="cls-2" d="M113.53,678.99c0-37.29.23-74.58-.16-111.87-.11-10.31,2.2-18.36,9.54-26.34,16.29-17.71,24.19-38.87,23.49-63.56-.87-30.54-.18-61.13-.23-91.69-.03-22.84-5.67-43.86-23.02-59.71-11.83-10.8-9.44-24.28-9.59-37.5-.11-9.78-.07-19.56.2-29.34.15-5.32,2.33-10.07,8.28-10.22,6.01-.15,9.19,4.75,8.48,9.83-4.58,32.62,6.58,60.16,24.43,86.72,6.58,9.79,6.55,23.24,6.48,35.64-.19,33.62-.56,67.25.15,100.86.52,24.44-6.58,46-22.16,64.29-7.04,8.27-8.63,16.72-8.6,26.83.21,71.52.11,143.05.11,214.57,0,4.28.06,8.56-.04,12.84-.16,6.23-.37,14.02-7.93,14.4-9.13.46-9.36-7.9-9.38-14.71-.09-40.35-.04-80.69-.05-121.04Z"/>
      <path class="cls-5" d="M725.5,683.04c0-26.31-.26-52.62.08-78.92.33-25.56,1.95-50.34-18.59-71.52-11.39-11.75-13.33-30.1-13.57-46.75-.53-36.09-.62-72.19.06-108.28.34-17.95,3.88-36.66,16.24-49.68,15.75-16.59,16.34-35.22,16.2-55.63-.06-8.25-6.58-23.66,8.33-23.27,11.67.31,6.42,14.77,7.08,23.11.82,10.33-.15,20.8.3,31.18.37,8.55-2.35,15.06-8.49,21.18-15.92,15.88-23.28,35.4-23.13,57.97.23,33.65.25,67.3.04,100.94-.13,21.88,6.69,41.16,22.01,56.58,7.71,7.76,9.63,16.02,9.6,26.31-.26,76.47-.14,152.95-.14,229.42,0,3.06-.04,6.12-.11,9.18-.12,5.26-1.37,10.32-7.54,10.68-7.84.45-8.26-5.69-8.29-11.37-.1-18.35-.07-36.71-.07-55.06,0-22.02,0-44.05,0-66.07Z"/>
    </g>
  </g>
</svg>